<mxfile host="app.diagrams.net" modified="2022-08-02T06:27:51.461Z" agent="5.0 (Windows NT 10.0; Win64; x64) AppleWebKit/537.36 (KHTML, like Gecko) Chrome/103.0.0.0 Safari/537.36" etag="ZXW89UxCD74OPxTduBnV" version="20.2.2" type="github">
  <diagram id="_OjEr71gwPLQBbwjqFiU" name="ページ1">
    <mxGraphModel dx="569" dy="314" grid="1" gridSize="10" guides="1" tooltips="1" connect="1" arrows="1" fold="1" page="1" pageScale="1" pageWidth="827" pageHeight="1169" math="0" shadow="0">
      <root>
        <mxCell id="0" />
        <mxCell id="1" parent="0" />
        <mxCell id="Yser9eQdS43eQkAt1Rb7-6" value="" style="rounded=0;whiteSpace=wrap;html=1;fillColor=none;" vertex="1" parent="1">
          <mxGeometry x="350" y="70" width="240" height="170" as="geometry" />
        </mxCell>
        <mxCell id="Yser9eQdS43eQkAt1Rb7-1" value="&lt;br&gt;机" style="rounded=0;whiteSpace=wrap;html=1;" vertex="1" parent="1">
          <mxGeometry x="400" y="80" width="120" height="40" as="geometry" />
        </mxCell>
        <mxCell id="Yser9eQdS43eQkAt1Rb7-2" value="pc" style="rounded=0;whiteSpace=wrap;html=1;" vertex="1" parent="1">
          <mxGeometry x="520" y="90" width="20" height="30" as="geometry" />
        </mxCell>
        <mxCell id="Yser9eQdS43eQkAt1Rb7-3" value="椅子" style="rounded=0;whiteSpace=wrap;html=1;" vertex="1" parent="1">
          <mxGeometry x="445" y="120" width="30" height="20" as="geometry" />
        </mxCell>
        <mxCell id="Yser9eQdS43eQkAt1Rb7-4" value="棚" style="rounded=0;whiteSpace=wrap;html=1;" vertex="1" parent="1">
          <mxGeometry x="370" y="70" width="30" height="20" as="geometry" />
        </mxCell>
        <mxCell id="Yser9eQdS43eQkAt1Rb7-5" value="棚" style="rounded=0;whiteSpace=wrap;html=1;" vertex="1" parent="1">
          <mxGeometry x="350" y="100" width="20" height="50" as="geometry" />
        </mxCell>
        <mxCell id="Yser9eQdS43eQkAt1Rb7-7" value="布団" style="rounded=1;whiteSpace=wrap;html=1;fillColor=none;" vertex="1" parent="1">
          <mxGeometry x="400" y="160" width="140" height="60" as="geometry" />
        </mxCell>
      </root>
    </mxGraphModel>
  </diagram>
</mxfile>
